<svg xmlns="http://www.w3.org/2000/svg" viewBox="0 0 24 24" fill="currentColor">
  <defs>
    <linearGradient id="flameGrad" x1="0%" y1="0%" x2="100%" y2="100%">
      <stop offset="0%" style="stop-color:#f97316"/>
      <stop offset="50%" style="stop-color:#ea580c"/>
      <stop offset="100%" style="stop-color:#c2410c"/>
    </linearGradient>
  </defs>
  <path fill="url(#flameGrad)" d="M12 23c-4.97 0-9-3.58-9-8 0-2.52 1.17-4.81 3-6.36V8c0-4.42 3.58-8 8-8 .35 0 .69.03 1.03.08C13.15 1.74 12 3.75 12 6c0 2.76 2.24 5 5 5 .35 0 .69-.03 1.03-.08C19.85 9.26 21 11.25 21 13.5c0 5.25-4.03 9.5-9 9.5zm0-2c3.87 0 7-2.69 7-6 0-1.68-.75-3.19-1.94-4.29C16.72 10.94 16.37 11 16 11c-3.87 0-7-3.13-7-7 0-.37.06-.72.13-1.07C6.25 4.31 5 6.68 5 9v1c-1.48 1.19-2.48 2.95-2.48 5 0 3.31 3.13 6 7 6z"/>
</svg>
